<svg width="122" height="50" viewBox="0 0 122 50" fill="none" xmlns="http://www.w3.org/2000/svg">
<rect x="1" y="1" width="48" height="48" rx="24" fill="black" stroke="white" stroke-width="2"/>
<path d="M55.7451 12.9473C55.4033 12.9473 55.2324 12.7992 55.2324 12.5029V11.6416C55.2324 11.3454 55.4033 11.1973 55.7451 11.1973H62.7725C63.1143 11.1973 63.2852 11.3454 63.2852 11.6416V12.5029C63.2852 12.7992 63.1143 12.9473 62.7725 12.9473H60.2568V20.624C60.2568 20.8747 60.1429 21 59.915 21H58.6025C58.3747 21 58.2607 20.8747 58.2607 20.624V12.9473H55.7451ZM65.0898 21C64.7708 21 64.6113 20.8291 64.6113 20.4873V11.71C64.6113 11.3682 64.7708 11.1973 65.0898 11.1973H68.2549C69.6631 11.1973 70.6908 11.416 71.3379 11.8535C71.985 12.2865 72.3086 12.9928 72.3086 13.9727C72.3086 14.7018 72.0465 15.2829 71.5225 15.7158C70.9984 16.1488 70.333 16.4359 69.5264 16.5771V16.5908C69.9639 16.7549 70.2943 16.9827 70.5176 17.2744C70.7409 17.5661 70.9232 17.8213 71.0645 18.04L72.5684 20.4121C72.819 20.804 72.7324 21 72.3086 21H71.1191C70.8685 21 70.6634 20.8656 70.5039 20.5967L69.123 18.293C68.9727 18.0469 68.6969 17.778 68.2959 17.4863C67.8994 17.1901 67.5052 17.042 67.1133 17.042H66.6074V20.4873C66.6074 20.8291 66.4479 21 66.1289 21H65.0898ZM66.6074 15.3467H67.8311C68.7425 15.3467 69.3896 15.2441 69.7725 15.0391C70.1598 14.8294 70.3535 14.499 70.3535 14.0479C70.3535 13.5557 70.1667 13.2367 69.793 13.0908C69.4238 12.9404 68.8792 12.8652 68.1592 12.8652H66.6074V15.3467ZM74.0654 21C73.7373 21 73.6302 20.8496 73.7441 20.5488L77.0938 11.751C77.235 11.3818 77.4492 11.1973 77.7363 11.1973H78.6934C78.9805 11.1973 79.1947 11.3818 79.3359 11.751L82.6855 20.5488C82.7995 20.8496 82.6924 21 82.3643 21H81.2773C80.9766 21 80.7669 20.8428 80.6484 20.5283L79.9512 18.6895H76.4785L75.7812 20.5283C75.6628 20.8428 75.4531 21 75.1523 21H74.0654ZM77.1143 16.9941H79.3154L78.4746 14.8203C78.3743 14.5651 78.3128 14.3805 78.29 14.2666C78.2718 14.1481 78.2513 13.9749 78.2285 13.7471H78.2012C78.1784 13.9749 78.1556 14.1481 78.1328 14.2666C78.1146 14.3805 78.0553 14.5651 77.9551 14.8203L77.1143 16.9941ZM84.3809 21C84.0618 21 83.9023 20.8291 83.9023 20.4873V11.71C83.9023 11.3682 84.0618 11.1973 84.3809 11.1973H85.4199C85.7389 11.1973 85.8984 11.3682 85.8984 11.71V20.4873C85.8984 20.8291 85.7389 21 85.4199 21H84.3809ZM88.5645 21C88.2454 21 88.0859 20.8291 88.0859 20.4873V11.71C88.0859 11.3682 88.2454 11.1973 88.5645 11.1973H89.5762C89.9681 11.1973 90.2643 11.3568 90.4648 11.6758L93.9512 17.2744H93.999C93.9762 17.001 93.9648 16.7275 93.9648 16.4541V11.71C93.9648 11.3682 94.1243 11.1973 94.4434 11.1973H95.4824C95.8014 11.1973 95.9609 11.3682 95.9609 11.71V20.4873C95.9609 20.8291 95.8014 21 95.4824 21H94.5391C94.1471 21 93.8509 20.8405 93.6504 20.5215L90.0957 14.8203H90.0479C90.0706 15.0938 90.082 15.3672 90.082 15.6406V20.4873C90.082 20.8291 89.9225 21 89.6035 21H88.5645ZM98.627 21C98.3079 21 98.1484 20.8291 98.1484 20.4873V11.71C98.1484 11.3682 98.3079 11.1973 98.627 11.1973H99.666C99.985 11.1973 100.145 11.3682 100.145 11.71V20.4873C100.145 20.8291 99.985 21 99.666 21H98.627ZM102.811 21C102.492 21 102.332 20.8291 102.332 20.4873V11.71C102.332 11.3682 102.492 11.1973 102.811 11.1973H103.822C104.214 11.1973 104.51 11.3568 104.711 11.6758L108.197 17.2744H108.245C108.222 17.001 108.211 16.7275 108.211 16.4541V11.71C108.211 11.3682 108.37 11.1973 108.689 11.1973H109.729C110.048 11.1973 110.207 11.3682 110.207 11.71V20.4873C110.207 20.8291 110.048 21 109.729 21H108.785C108.393 21 108.097 20.8405 107.896 20.5215L104.342 14.8203H104.294C104.317 15.0938 104.328 15.3672 104.328 15.6406V20.4873C104.328 20.8291 104.169 21 103.85 21H102.811ZM111.889 16.0986C111.889 14.5264 112.299 13.2777 113.119 12.3525C113.939 11.4274 115.102 10.9648 116.605 10.9648C117.512 10.9648 118.223 11.0811 118.738 11.3135C119.258 11.5459 119.714 11.9059 120.105 12.3936C120.342 12.6898 120.336 12.9199 120.085 13.084L119.306 13.5898C119.078 13.7402 118.834 13.6742 118.574 13.3916C118.36 13.1592 118.089 12.9655 117.761 12.8105C117.433 12.6556 117.07 12.5781 116.674 12.5781C115.717 12.5781 115.035 12.8812 114.63 13.4873C114.224 14.0889 114.021 14.9593 114.021 16.0986C114.021 17.238 114.224 18.1107 114.63 18.7168C115.035 19.3184 115.717 19.6191 116.674 19.6191C117.139 19.6191 117.54 19.5736 117.877 19.4824C118.214 19.3867 118.533 19.2158 118.834 18.9697V17.7461H117.351C117.009 17.7461 116.838 17.598 116.838 17.3018V16.4951C116.838 16.1989 117.009 16.0508 117.351 16.0508H120.317C120.659 16.0508 120.83 16.1989 120.83 16.4951V19.9678C120.192 20.4372 119.547 20.7653 118.896 20.9521C118.248 21.139 117.485 21.2324 116.605 21.2324C115.124 21.2324 113.967 20.7699 113.133 19.8447C112.303 18.9196 111.889 17.6709 111.889 16.0986ZM55.5879 36.0986C55.5879 34.5264 55.9867 33.2777 56.7842 32.3525C57.5817 31.4274 58.7324 30.9648 60.2363 30.9648C61.1022 30.9648 61.8359 31.0993 62.4375 31.3682C63.0391 31.637 63.4629 32.0267 63.709 32.5371C63.873 32.8743 63.8457 33.1022 63.627 33.2207L62.8066 33.6582C62.5195 33.8132 62.2826 33.7266 62.0957 33.3984C61.9772 33.1888 61.7562 32.9997 61.4326 32.8311C61.1136 32.6624 60.7376 32.5781 60.3047 32.5781C59.3477 32.5781 58.6777 32.8812 58.2949 33.4873C57.9121 34.0889 57.7207 34.9593 57.7207 36.0986C57.7207 37.238 57.9121 38.1107 58.2949 38.7168C58.6777 39.3184 59.3477 39.6191 60.3047 39.6191C60.8197 39.6191 61.2526 39.5029 61.6035 39.2705C61.959 39.0381 62.2051 38.8171 62.3418 38.6074C62.5651 38.2656 62.8021 38.179 63.0527 38.3477L63.873 38.8945C64.0964 39.0449 64.1191 39.2728 63.9414 39.5781C63.6771 40.0339 63.2236 40.4235 62.5811 40.7471C61.9385 41.0706 61.1569 41.2324 60.2363 41.2324C58.7552 41.2324 57.609 40.7699 56.7979 39.8447C55.9912 38.9196 55.5879 37.6709 55.5879 36.0986ZM66.2656 41C65.9466 41 65.7871 40.8291 65.7871 40.4873V31.71C65.7871 31.3682 65.9466 31.1973 66.2656 31.1973H72.1309C72.4727 31.1973 72.6436 31.3454 72.6436 31.6416V32.4482C72.6436 32.7445 72.4727 32.8926 72.1309 32.8926H67.7832V35.0664H71.7686C72.1104 35.0664 72.2812 35.2145 72.2812 35.5107V36.3174C72.2812 36.6136 72.1104 36.7617 71.7686 36.7617H67.7832V39.3047H72.3496C72.6914 39.3047 72.8623 39.4528 72.8623 39.749V40.5557C72.8623 40.8519 72.6914 41 72.3496 41H66.2656ZM75.0156 41C74.6966 41 74.5371 40.8291 74.5371 40.4873V31.71C74.5371 31.3682 74.6966 31.1973 75.0156 31.1973H76.0273C76.4193 31.1973 76.7155 31.3568 76.916 31.6758L80.4023 37.2744H80.4502C80.4274 37.001 80.416 36.7275 80.416 36.4541V31.71C80.416 31.3682 80.5755 31.1973 80.8945 31.1973H81.9336C82.2526 31.1973 82.4121 31.3682 82.4121 31.71V40.4873C82.4121 40.8291 82.2526 41 81.9336 41H80.9902C80.5983 41 80.3021 40.8405 80.1016 40.5215L76.5469 34.8203H76.499C76.5218 35.0938 76.5332 35.3672 76.5332 35.6406V40.4873C76.5332 40.8291 76.3737 41 76.0547 41H75.0156ZM84.251 32.9473C83.9092 32.9473 83.7383 32.7992 83.7383 32.5029V31.6416C83.7383 31.3454 83.9092 31.1973 84.251 31.1973H91.2783C91.6201 31.1973 91.791 31.3454 91.791 31.6416V32.5029C91.791 32.7992 91.6201 32.9473 91.2783 32.9473H88.7627V40.624C88.7627 40.8747 88.6488 41 88.4209 41H87.1084C86.8805 41 86.7666 40.8747 86.7666 40.624V32.9473H84.251ZM93.5957 41C93.2767 41 93.1172 40.8291 93.1172 40.4873V31.71C93.1172 31.3682 93.2767 31.1973 93.5957 31.1973H99.4609C99.8027 31.1973 99.9736 31.3454 99.9736 31.6416V32.4482C99.9736 32.7445 99.8027 32.8926 99.4609 32.8926H95.1133V35.0664H99.0986C99.4404 35.0664 99.6113 35.2145 99.6113 35.5107V36.3174C99.6113 36.6136 99.4404 36.7617 99.0986 36.7617H95.1133V39.3047H99.6797C100.021 39.3047 100.192 39.4528 100.192 39.749V40.5557C100.192 40.8519 100.021 41 99.6797 41H93.5957ZM102.346 41C102.027 41 101.867 40.8291 101.867 40.4873V31.71C101.867 31.3682 102.027 31.1973 102.346 31.1973H105.511C106.919 31.1973 107.947 31.416 108.594 31.8535C109.241 32.2865 109.564 32.9928 109.564 33.9727C109.564 34.7018 109.302 35.2829 108.778 35.7158C108.254 36.1488 107.589 36.4359 106.782 36.5771V36.5908C107.22 36.7549 107.55 36.9827 107.773 37.2744C107.997 37.5661 108.179 37.8213 108.32 38.04L109.824 40.4121C110.075 40.804 109.988 41 109.564 41H108.375C108.124 41 107.919 40.8656 107.76 40.5967L106.379 38.293C106.229 38.0469 105.953 37.778 105.552 37.4863C105.155 37.1901 104.761 37.042 104.369 37.042H103.863V40.4873C103.863 40.8291 103.704 41 103.385 41H102.346ZM103.863 35.3467H105.087C105.998 35.3467 106.646 35.2441 107.028 35.0391C107.416 34.8294 107.609 34.499 107.609 34.0479C107.609 33.5557 107.423 33.2367 107.049 33.0908C106.68 32.9404 106.135 32.8652 105.415 32.8652H103.863V35.3467Z" fill="white"/>
<path d="M9.18164 24.8975C9.18164 21.9775 9.9222 19.6585 11.4033 17.9404C12.8844 16.2223 15.0215 15.3633 17.8145 15.3633C19.4225 15.3633 20.7852 15.613 21.9023 16.1123C23.0195 16.6117 23.8066 17.3353 24.2637 18.2832C24.5684 18.9095 24.5176 19.3327 24.1113 19.5527L22.5879 20.3652C22.0547 20.653 21.6146 20.4922 21.2676 19.8828C21.0475 19.4935 20.637 19.1423 20.0361 18.8291C19.4437 18.516 18.7454 18.3594 17.9414 18.3594C16.1641 18.3594 14.9199 18.9222 14.209 20.0479C13.498 21.165 13.1426 22.7816 13.1426 24.8975C13.1426 27.0133 13.498 28.6341 14.209 29.7598C14.9199 30.877 16.1641 31.4355 17.9414 31.4355C18.8978 31.4355 19.7018 31.2197 20.3535 30.7881C21.0137 30.3564 21.4707 29.946 21.7246 29.5566C22.1393 28.9219 22.5794 28.7611 23.0449 29.0742L24.5684 30.0898C24.9831 30.3691 25.0254 30.7923 24.6953 31.3594C24.2044 32.2057 23.3623 32.9294 22.1689 33.5303C20.9756 34.1312 19.5241 34.4316 17.8145 34.4316C15.0638 34.4316 12.9352 33.5726 11.4287 31.8545C9.93066 30.1364 9.18164 27.8174 9.18164 24.8975ZM27.4756 19.0449C26.8408 19.0449 26.5234 18.7699 26.5234 18.2197V16.6201C26.5234 16.07 26.8408 15.7949 27.4756 15.7949H40.5264C41.1611 15.7949 41.4785 16.07 41.4785 16.6201V18.2197C41.4785 18.7699 41.1611 19.0449 40.5264 19.0449H35.8545V33.3018C35.8545 33.7673 35.6429 34 35.2197 34H32.7822C32.359 34 32.1475 33.7673 32.1475 33.3018V19.0449H27.4756Z" fill="white"/>
</svg>
